<svg id="Layer_1" data-name="Layer 1" xmlns="http://www.w3.org/2000/svg" viewBox="0 0 48 48"><defs><style>.cls-1{fill:#f18630;}.cls-2{fill:#fff;}</style></defs><title>instagram logo</title><rect class="cls-1" width="48" height="48" rx="24" ry="24"/><path class="cls-2" d="M24,15.78A8.22,8.22,0,1,0,32.22,24,8.22,8.22,0,0,0,24,15.78Zm0,13.55A5.33,5.33,0,1,1,29.33,24,5.32,5.32,0,0,1,24,29.33Z"/><path class="cls-2" d="M32.54,13.54a1.92,1.92,0,1,0,1.92,1.92A1.92,1.92,0,0,0,32.54,13.54Z"/><path class="cls-2" d="M39.9,17.4c-.26-5.8-3.49-9-9.3-9.3C28.89,8,28.35,8,24,8s-4.89,0-6.6.1c-5.81.26-9,3.49-9.3,9.3C8,19.11,8,19.66,8,24s0,4.89.1,6.6c.26,5.81,3.49,9,9.3,9.3,1.71.08,2.25.1,6.6.1s4.89,0,6.6-.1c5.8-.26,9-3.49,9.3-9.3.08-1.71.1-2.25.1-6.6S40,19.11,39.9,17.4ZM37,30.47c-.2,4.3-2.22,6.36-6.56,6.55-1.69.08-2.2.1-6.47.1s-4.78,0-6.46-.09c-4.35-.2-6.37-2.27-6.56-6.56-.08-1.69-.1-2.2-.1-6.47s0-4.78.1-6.46c.19-4.31,2.21-6.37,6.55-6.56,1.69-.08,2.2-.1,6.47-.1s4.78,0,6.47.1c4.33.19,6.36,2.25,6.56,6.56.07,1.68.09,2.19.09,6.46S37.1,28.78,37,30.47Z"/></svg>