<svg id="Layer_1" data-name="Layer 1" xmlns="http://www.w3.org/2000/svg" viewBox="0 0 48 48"><defs><style>.cls-1{fill:#f18630;}.cls-2{fill:#fff;}</style></defs><title>twitter icon</title><rect class="cls-1" width="48" height="48" rx="24" ry="24"/><path class="cls-2" d="M37.72,18.47C38.14,27.71,31.25,38,19.06,38A18.54,18.54,0,0,1,9,35.05a13.22,13.22,0,0,0,9.72-2.71,6.59,6.59,0,0,1-6.13-4.56,6.67,6.67,0,0,0,3-.12,6.56,6.56,0,0,1-5.26-6.52,6.47,6.47,0,0,0,3,.83,6.58,6.58,0,0,1-2-8.77,18.61,18.61,0,0,0,13.53,6.86,6.57,6.57,0,0,1,11.19-6,13.16,13.16,0,0,0,4.17-1.59,6.58,6.58,0,0,1-2.89,3.63,13.23,13.23,0,0,0,3.77-1A13.21,13.21,0,0,1,37.72,18.47Z"/></svg>